<svg width="218" height="291" viewBox="0 0 218 291" fill="none" xmlns="http://www.w3.org/2000/svg">
<path fill-rule="evenodd" clip-rule="evenodd" d="M44 0H174C197.932 0 217.333 21.7142 217.333 48.5V242.5C217.333 269.286 197.932 291 174 291H44C20.0676 291 0.666626 269.286 0.666626 242.5V48.5C0.666626 21.7142 20.0676 0 44 0ZM58.4444 32.3333C42.4895 32.3333 29.5555 46.8095 29.5555 64.6667C29.5555 82.5238 42.4895 97 58.4444 97H159.555C175.51 97 188.444 82.5238 188.444 64.6667C188.444 46.8095 175.51 32.3333 159.555 32.3333H58.4444ZM44 129.333C36.0226 129.333 29.5555 136.571 29.5555 145.5C29.5555 154.429 36.0226 161.667 44 161.667H58.4444C66.4218 161.667 72.8888 154.429 72.8888 145.5C72.8888 136.571 66.4218 129.333 58.4444 129.333H44ZM101.778 129.333C93.8004 129.333 87.3333 136.571 87.3333 145.5C87.3333 154.429 93.8003 161.667 101.778 161.667H116.222C124.2 161.667 130.667 154.429 130.667 145.5C130.667 136.571 124.2 129.333 116.222 129.333H101.778ZM159.555 129.333C151.578 129.333 145.111 136.571 145.111 145.5C145.111 154.429 151.578 161.667 159.555 161.667H174C181.977 161.667 188.444 154.429 188.444 145.5C188.444 136.571 181.977 129.333 174 129.333H159.555ZM44 177.833C36.0226 177.833 29.5555 185.071 29.5555 194C29.5555 202.929 36.0226 210.167 44 210.167H58.4444C66.4218 210.167 72.8888 202.929 72.8888 194C72.8888 185.071 66.4218 177.833 58.4444 177.833H44ZM101.778 177.833C93.8004 177.833 87.3333 185.071 87.3333 194C87.3333 202.929 93.8003 210.167 101.778 210.167H116.222C124.2 210.167 130.667 202.929 130.667 194C130.667 185.071 124.2 177.833 116.222 177.833H101.778ZM159.555 177.833C151.578 177.833 145.111 185.071 145.111 194C145.111 202.929 151.578 210.167 159.555 210.167H174C181.977 210.167 188.444 202.929 188.444 194C188.444 185.071 181.977 177.833 174 177.833H159.555ZM44 226.333C36.0226 226.333 29.5555 233.571 29.5555 242.5C29.5555 251.429 36.0226 258.667 44 258.667H58.4444C66.4218 258.667 72.8888 251.429 72.8888 242.5C72.8888 233.571 66.4218 226.333 58.4444 226.333H44ZM101.778 226.333C93.8004 226.333 87.3333 233.571 87.3333 242.5C87.3333 251.429 93.8003 258.667 101.778 258.667H116.222C124.2 258.667 130.667 251.429 130.667 242.5C130.667 233.571 124.2 226.333 116.222 226.333H101.778ZM159.555 226.333C151.578 226.333 145.111 233.571 145.111 242.5C145.111 251.429 151.578 258.667 159.555 258.667H174C181.977 258.667 188.444 251.429 188.444 242.5C188.444 233.571 181.977 226.333 174 226.333H159.555Z" fill="#CBA2EA"/>
</svg>
