<svg width="800" height="800" viewBox="0 0 800 800" fill="none" xmlns="http://www.w3.org/2000/svg">
<path d="M191.833 676.1L133.333 266.667H666.667L608.167 676.1C605.896 691.986 597.971 706.52 585.847 717.033C573.723 727.547 558.214 733.334 542.167 733.333H257.833C241.786 733.334 226.276 727.547 214.153 717.033C202.029 706.52 194.104 691.986 191.833 676.1ZM700 133.333H533.333V100C533.333 91.1595 529.821 82.681 523.57 76.4298C517.319 70.1786 508.84 66.6667 500 66.6667H300C291.159 66.6667 282.681 70.1786 276.43 76.4298C270.179 82.681 266.667 91.1595 266.667 100V133.333H100C91.1594 133.333 82.6809 136.845 76.4297 143.096C70.1785 149.348 66.6666 157.826 66.6666 166.667C66.6666 175.507 70.1785 183.986 76.4297 190.237C82.6809 196.488 91.1594 200 100 200H700C708.84 200 717.319 196.488 723.57 190.237C729.821 183.986 733.333 175.507 733.333 166.667C733.333 157.826 729.821 149.348 723.57 143.096C717.319 136.845 708.84 133.333 700 133.333Z" fill="#0B0E1D"/>
</svg>
