<svg width="800" height="560" viewBox="0 0 800 560" fill="none" xmlns="http://www.w3.org/2000/svg">
<path d="M720 0H337.84C320.24 0 295 9.44 281.76 21L9.92 258.92C6.81168 261.479 4.3084 264.695 2.58983 268.336C0.871249 271.977 -0.0200195 275.954 -0.0200195 279.98C-0.0200195 284.006 0.871249 287.983 2.58983 291.624C4.3084 295.265 6.81168 298.481 9.92 301.04L281.76 538.92C295 550.48 320.24 560 337.84 560H720C764 560 800 524 800 480V80C800 36 764 0 720 0ZM607.64 440L505.36 337.72L403.12 440L345.4 382.28L447.64 280L345.4 177.72L403.12 120L505.4 222.2L607.6 120L665.36 177.72L563.12 280L665.4 382.2L607.64 440Z" fill="#0B0E1D"/>
</svg>
